HIERARCHY
ROOT Hips
{
	OFFSET -0.001795 -0.223333 0.028219
	CHANNELS 6 Xposition Yposition Zposition Zrotation Yrotation Xrotation 
	JOINT LeftUpLeg
	{
		OFFSET 0.069520 -0.091406 -0.006815
		CHANNELS 3 Zrotation Yrotation Xrotation
		JOINT LeftLeg
		{
			OFFSET 0.034277 -0.375199 -0.004496
			CHANNELS 3 Zrotation Yrotation Xrotation
			JOINT LeftFoot
			{
				OFFSET -0.013596 -0.397961 -0.043693
				CHANNELS 3 Zrotation Yrotation Xrotation
				JOINT LeftToe
				{
					OFFSET 0.026358 -0.055791 0.119288
					CHANNELS 3 Zrotation Yrotation Xrotation
					End Site
					{
						OFFSET 0.000000 0.000000 0.000000
					}
				}
			}
		}
	}
	JOINT RightUpLeg
	{
		OFFSET -0.067670 -0.090522 -0.004320
		CHANNELS 3 Zrotation Yrotation Xrotation
		JOINT RightLeg
		{
			OFFSET -0.038290 -0.382569 -0.008850
			CHANNELS 3 Zrotation Yrotation Xrotation
			JOINT RightFoot
			{
				OFFSET 0.015774 -0.398415 -0.042312
				CHANNELS 3 Zrotation Yrotation Xrotation
				JOINT RightToe
				{
					OFFSET -0.025372 -0.048144 0.123348
					CHANNELS 3 Zrotation Yrotation Xrotation
					End Site
					{
						OFFSET 0.000000 0.000000 0.000000
					}
				}
			}
		}
	}
	JOINT Spine
	{
		OFFSET -0.002533 0.108963 -0.026696
		CHANNELS 3 Zrotation Yrotation Xrotation
		JOINT Spine1
		{
			OFFSET 0.005487 0.135180 0.001092
			CHANNELS 3 Zrotation Yrotation Xrotation
			JOINT Spine2
			{
				OFFSET 0.001457 0.052922 0.025425
				CHANNELS 3 Zrotation Yrotation Xrotation
				JOINT Neck
				{
					OFFSET -0.002778 0.213870 -0.042857
					CHANNELS 3 Zrotation Yrotation Xrotation
					JOINT Head
					{
						OFFSET 0.005152 0.064970 0.051349
						CHANNELS 3 Zrotation Yrotation Xrotation
						End Site
						{
							OFFSET 0.000000 0.000000 0.000000
						}
					}
				}
				JOINT LeftShoulder
				{
					OFFSET 0.078845 0.121749 -0.034090
					CHANNELS 3 Zrotation Yrotation Xrotation
					JOINT LeftArm
					{
						OFFSET 0.090977 0.030469 -0.008868
						CHANNELS 3 Zrotation Yrotation Xrotation
						JOINT LeftForeArm
						{
							OFFSET 0.259612 -0.012772 -0.027456
							CHANNELS 3 Zrotation Yrotation Xrotation
							JOINT LeftHand
							{
								OFFSET 0.249234 0.008986 -0.001171
								CHANNELS 3 Zrotation Yrotation Xrotation
								End Site
								{
									OFFSET 0.000000 0.000000 0.000000
								}
							}
						}
					}
				}
				JOINT RightShoulder
				{
					OFFSET -0.081759 0.118833 -0.038615
					CHANNELS 3 Zrotation Yrotation Xrotation
					JOINT RightArm
					{
						OFFSET -0.096012 0.032551 -0.009143
						CHANNELS 3 Zrotation Yrotation Xrotation
						JOINT RightForeArm
						{
							OFFSET -0.253742 -0.013329 -0.021401
							CHANNELS 3 Zrotation Yrotation Xrotation
							JOINT RightHand
							{
								OFFSET -0.255298 0.007772 -0.005559
								CHANNELS 3 Zrotation Yrotation Xrotation
								End Site
								{
									OFFSET 0.000000 0.000000 0.000000
								}
							}
						}
					}
				}
			}
		}
	}
}
MOTION
Frames: 10
Frame Time: 0.050000
-0.029251 0.946409 0.362193 0.672715 13.432750 13.197833 5.292388 -1.536554 -19.025902 -4.202900 -0.013367 14.860842 1.706428 5.886027 4.293969 0.000000 0.000000 0.000000 -4.736086 0.627421 -32.817954 4.707076 -0.962589 12.681287 -2.265638 -8.490940 19.919932 0.000000 0.000000 0.000000 2.460929 -4.066708 35.145578 9.866774 -1.435624 -22.512963 2.844059 4.520699 27.380937 -1.356403 2.932243 -9.688842 0.000000 0.000000 0.000000 -28.223045 -5.874348 -2.382170 -44.126954 -7.116738 -3.810090 -26.174182 -46.908868 12.732326 0.000000 0.000000 0.000000 14.470099 21.360194 12.757411 29.949734 30.980435 1.536226 -15.199721 26.714878 -1.974442 0.000000 0.000000 0.000000 
-0.037212 0.945966 0.363232 1.513717 14.232825 15.339493 5.108375 -1.809954 -21.183137 -5.231970 0.220985 12.976202 1.779130 6.402690 4.917915 0.000000 0.000000 0.000000 -4.459915 0.542843 -34.948852 4.318775 -0.861952 12.235328 -4.215750 -11.582205 20.952605 0.000000 0.000000 0.000000 2.717605 -5.163045 39.942451 9.642238 -1.104009 -24.656289 3.952764 6.367736 28.627327 -1.022863 3.058467 -11.333728 0.000000 0.000000 0.000000 -27.407714 -7.341391 -1.993518 -43.526857 -6.930020 -3.761823 -29.346845 -51.044942 15.267013 0.000000 0.000000 0.000000 13.527634 23.929200 14.230020 24.881207 32.495630 1.021709 -17.666889 23.567308 -2.235084 0.000000 0.000000 0.000000 
-0.044219 0.945402 0.363978 2.238130 14.856081 17.935375 4.672565 -2.140156 -23.320523 -4.600673 0.139120 11.382282 1.815827 6.816308 5.466824 0.000000 0.000000 0.000000 -4.386921 0.371782 -37.253797 3.764952 -0.696600 11.191115 -5.102880 -12.921600 22.291369 0.000000 0.000000 0.000000 3.124548 -6.217837 43.388831 8.449393 -0.742213 -25.642945 5.717039 8.272078 29.533541 0.527254 2.479113 -14.302921 0.000000 0.000000 0.000000 -25.844913 -8.653628 -1.699581 -44.413384 -7.311291 -3.619797 -32.792177 -55.487500 18.251069 0.000000 0.000000 0.000000 9.199665 25.327317 13.726560 21.215185 35.308681 1.200518 -18.915291 19.797438 -2.022761 0.000000 0.000000 0.000000 
-0.050592 0.944837 0.365108 2.923786 15.057176 19.853228 3.938276 -2.460632 -24.968913 -3.846958 0.060260 9.929174 2.583230 8.974557 7.108834 0.000000 0.000000 0.000000 -4.488106 0.201250 -38.972259 3.206736 -0.552763 10.790920 -4.953808 -12.669956 22.582371 0.000000 0.000000 0.000000 2.773946 -6.971007 47.205302 7.239627 -0.415597 -26.674146 7.538839 10.484161 31.025351 2.208869 1.803161 -15.926787 0.000000 0.000000 0.000000 -23.098307 -9.402604 -1.520680 -47.081990 -7.446466 -3.937228 -37.880932 -59.146944 22.115226 0.000000 0.000000 0.000000 6.046001 26.843194 13.538063 16.258223 37.361203 0.746952 -20.584620 15.399475 -1.662111 0.000000 0.000000 0.000000 
-0.056343 0.942537 0.366601 3.399775 15.644534 21.744835 3.473951 -2.888116 -27.272753 -3.390880 -0.006799 9.539506 4.405918 12.972012 9.336848 0.000000 0.000000 0.000000 -5.018159 -0.266450 -41.370986 3.647792 -0.686893 11.526016 -4.876597 -12.490429 22.973860 0.000000 0.000000 0.000000 2.688431 -7.800569 50.046745 6.116577 -0.162168 -27.277227 9.378035 13.002003 31.721726 3.465282 1.615766 -18.075412 0.000000 0.000000 0.000000 -20.960297 -9.915750 -1.761763 -48.832721 -6.541208 -4.434626 -45.008411 -60.715885 26.378042 0.000000 0.000000 0.000000 2.785176 27.287523 12.769589 11.226030 38.862725 0.151053 -20.973266 11.186760 -1.079510 0.000000 0.000000 0.000000 
-0.061314 0.936229 0.368263 4.700307 16.731077 24.001691 2.857036 -3.427467 -29.464455 -2.882742 -0.102065 9.469048 3.537496 11.578196 8.783508 0.000000 0.000000 0.000000 -5.786445 -1.086812 -44.261303 3.474190 -0.711056 12.846402 -5.796124 -13.697884 22.749575 0.000000 0.000000 0.000000 2.752191 -8.824719 52.482714 4.994080 0.128139 -28.532798 10.830105 15.083538 32.633540 3.876350 2.041046 -20.536080 0.000000 0.000000 0.000000 -18.637172 -10.686614 -1.634740 -50.917134 -5.410448 -5.270200 -53.681658 -61.758519 31.639237 0.000000 0.000000 0.000000 0.194434 27.476538 12.065348 6.926628 38.844282 -0.492397 -20.689201 7.186930 -0.449928 0.000000 0.000000 0.000000 
-0.065283 0.929052 0.370559 5.601753 17.265859 26.159274 2.867225 -3.924877 -32.017759 -2.857335 -0.148271 10.144145 3.158869 10.883226 8.149690 0.000000 0.000000 0.000000 -6.569023 -1.950812 -47.450610 3.946361 -0.928233 14.948640 -6.024517 -13.989351 21.684897 0.000000 0.000000 0.000000 2.327965 -9.452105 54.854209 4.267200 0.333670 -29.683077 11.488605 16.991870 32.646708 4.491236 2.070950 -21.685142 0.000000 0.000000 0.000000 -17.675964 -11.563614 -1.574850 -51.790991 -4.806244 -5.592982 -56.116740 -62.232600 32.817086 0.000000 0.000000 0.000000 -0.076690 28.422770 12.726178 1.874604 37.898858 -1.574108 -20.596770 3.781879 0.076121 0.000000 0.000000 0.000000 
-0.068483 0.918929 0.373873 6.892313 17.721118 29.697244 2.819849 -4.854940 -36.449754 -3.138181 -0.189031 11.694096 3.401983 11.331042 7.422726 0.000000 0.000000 0.000000 -7.111714 -3.139786 -52.500096 3.638360 -0.958475 17.785121 -6.243731 -14.345334 20.854361 0.000000 0.000000 0.000000 2.520735 -10.284939 56.177325 1.923702 0.716849 -30.851352 11.968415 17.933918 32.244248 5.019389 1.945794 -22.297365 0.000000 0.000000 0.000000 -15.042541 -11.576917 -1.227866 -54.088729 -4.899049 -6.228997 -61.617166 -62.592872 36.198495 0.000000 0.000000 0.000000 -1.040936 28.565274 12.773739 -2.709363 36.951694 -2.466525 -20.239197 1.637394 0.411037 0.000000 0.000000 0.000000 
-0.071280 0.908111 0.377404 7.524372 18.376069 32.029223 3.923710 -5.492600 -40.390281 -4.270476 -0.106711 13.781736 3.905634 12.468177 7.127072 0.000000 0.000000 0.000000 -7.253644 -4.272236 -57.136972 3.773125 -1.169759 21.425756 -6.447587 -14.702642 21.337135 0.000000 0.000000 0.000000 1.925089 -10.810871 58.142211 0.876010 0.909310 -32.381687 13.010574 19.136391 32.855288 5.732813 1.500756 -21.098786 0.000000 0.000000 0.000000 -15.092528 -11.226812 -1.853305 -55.088566 -2.588282 -7.403371 -65.558547 -62.208868 38.079125 0.000000 0.000000 0.000000 -0.570588 29.426430 13.730041 -8.036232 35.405358 -3.469803 -19.070107 -0.256567 0.619116 0.000000 0.000000 0.000000 
-0.073837 0.896925 0.380903 9.525888 19.583919 35.365507 4.441240 -6.627226 -44.815575 -5.254013 -0.018719 15.120511 2.906446 11.513247 8.021867 0.000000 0.000000 0.000000 -7.867782 -6.288642 -61.753003 2.911188 -1.063183 24.918754 -6.049967 -13.981998 20.167136 0.000000 0.000000 0.000000 1.666582 -11.708122 59.385624 0.560455 0.966893 -33.131999 12.970990 20.376371 33.306313 5.956743 1.978487 -23.567953 0.000000 0.000000 0.000000 -13.176294 -11.708187 -1.583834 -57.389805 -2.704145 -8.172080 -67.439296 -62.273743 38.647448 0.000000 0.000000 0.000000 -3.088702 29.572502 12.961927 -10.221309 34.227183 -3.471349 -18.437482 -2.140002 0.897159 0.000000 0.000000 0.000000 
